<?xml version="1.0" encoding="UTF-8"?><svg id="Livello_2" xmlns="http://www.w3.org/2000/svg" xmlns:xlink="http://www.w3.org/1999/xlink" viewBox="0 0 32 7.76"><defs><style>.cls-1{fill:url(#Sfumatura_senza_nome_4);}.cls-2{fill:url(#Sfumatura_senza_nome_4-4);}.cls-3{fill:url(#Sfumatura_senza_nome_4-2);}.cls-4{fill:url(#Sfumatura_senza_nome_4-3);}</style><linearGradient id="Sfumatura_senza_nome_4" x1="-661.66" y1="421.66" x2="-660.66" y2="421.66" gradientTransform="translate(21173 -3263.14) scale(32 7.75)" gradientUnits="userSpaceOnUse"><stop offset="0" stop-color="#00eb7f"/><stop offset="1" stop-color="#0d9ef3"/></linearGradient><linearGradient id="Sfumatura_senza_nome_4-2" y1="421.37" y2="421.37" xlink:href="#Sfumatura_senza_nome_4"/><linearGradient id="Sfumatura_senza_nome_4-3" y1="421.37" y2="421.37" xlink:href="#Sfumatura_senza_nome_4"/><linearGradient id="Sfumatura_senza_nome_4-4" y1="421.37" y2="421.37" xlink:href="#Sfumatura_senza_nome_4"/></defs><g id="Livello_1-2"><g id="b"><g id="c"><path class="cls-1" d="M.99,7.62H0v-2.88c0-.42,.09-.81,.25-1.18s.39-.69,.69-.95c.3-.28,.62-.48,1.02-.65,.39-.16,.81-.23,1.25-.23v.99c-.3,0-.6,.05-.85,.16-.25,.09-.51,.25-.72,.44s-.37,.39-.48,.65c-.12,.25-.18,.51-.16,.78v2.86h-.01Zm7.15-3.33c-.07-.21-.16-.42-.28-.6-.12-.18-.25-.35-.44-.48-.16-.14-.37-.25-.58-.32s-.44-.12-.67-.12-.46,.05-.67,.12-.39,.18-.58,.32c-.16,.14-.32,.3-.44,.48s-.21,.39-.25,.6h3.91Zm-1.94,3.48c-.42,0-.81-.07-1.18-.23-.35-.16-.69-.37-.95-.65-.28-.28-.48-.6-.65-.95-.16-.37-.23-.74-.23-1.15s.07-.81,.23-1.18,.37-.69,.65-.95c.28-.28,.6-.48,.95-.65,.37-.16,.76-.23,1.18-.23s.81,.07,1.18,.23,.69,.37,.95,.65c.28,.28,.48,.58,.65,.95,.16,.37,.23,.76,.23,1.18v.16c0,.07,0,.16-.02,.3H4.27c.05,.21,.14,.42,.25,.6,.12,.18,.28,.35,.44,.48,.16,.14,.37,.25,.58,.32s.44,.12,.67,.12c.18,0,.37-.05,.55-.14,.18-.09,.37-.23,.53-.39l.69,.69c-.25,.23-.53,.44-.83,.6-.3,.16-.62,.23-.95,.23h0Zm5.72-.01c-.3,0-.6-.07-.9-.18-.28-.12-.53-.28-.74-.48s-.37-.46-.48-.74c-.12-.28-.18-.58-.18-.9V1.86h.99v3.58c0,.18,.02,.35,.09,.51s.16,.3,.28,.42,.25,.21,.42,.28c.16,.07,.32,.12,.51,.12,.35,0,.69-.14,.95-.39,.12-.12,.21-.25,.28-.42,.07-.16,.12-.35,.09-.51V1.86h.97v3.58c0,.18,.05,.35,.09,.51,.07,.16,.16,.3,.28,.42s.25,.21,.42,.28c.16,.07,.32,.12,.51,.12,.35,0,.69-.14,.95-.39,.12-.12,.21-.25,.28-.42,.07-.16,.12-.35,.09-.51V1.86h.97v3.58c0,.3-.07,.6-.18,.9-.12,.28-.28,.53-.48,.74s-.46,.37-.74,.48c-.28,.12-.58,.18-.9,.18-.37,0-.72-.07-1.02-.23s-.58-.37-.81-.65c-.21,.28-.48,.48-.78,.65-.21,.14-.55,.23-.92,.23h-.04ZM18.75,1.86h.99V7.62h-.99V1.86Zm1.66,5.77l1.68-2.88-.42-.69c-.14-.25-.3-.51-.44-.76-.14-.25-.3-.51-.44-.74-.14-.23-.25-.46-.39-.67h1.13l1.11,1.89,.55-.97c.18-.32,.37-.65,.53-.95h1.11l-1.64,2.88c.14,.23,.25,.46,.39,.69,.14,.25,.28,.48,.44,.74,.14,.25,.28,.51,.42,.74,.14,.23,.25,.46,.39,.67h-1.11l-1.08-1.89c-.18,.32-.37,.65-.55,.97-.18,.32-.37,.62-.55,.95h-1.13v.02Z"/><path class="cls-3" d="M32,3.61c0-.44-.32-.81-.74-.88V.03h-.32V2.73c-.42,.07-.74,.44-.74,.88s.32,.81,.74,.88v.42h.32v-.42c.42-.09,.74-.44,.74-.88Zm-.9,.58c-.32,0-.58-.25-.58-.58s.25-.58,.58-.58,.58,.25,.58,.58-.25,.58-.58,.58Z"/><path class="cls-4" d="M29.92,1.32c0-.44-.32-.81-.74-.88v-.44h-.32V.45c-.42,.07-.74,.44-.74,.88s.32,.81,.74,.88v2.7h.32V2.2c.44-.07,.74-.44,.74-.88Zm-.88,.58c-.32,0-.58-.25-.58-.58s.25-.58,.58-.58,.58,.25,.58,.58-.25,.58-.58,.58Z"/><path class="cls-2" d="M27.87,3.01c0-.44-.32-.81-.74-.88V.01h-.32V2.13c-.42,.07-.74,.44-.74,.88s.32,.81,.74,.88v1.01h.32v-1.01c.42-.07,.74-.44,.74-.88Zm-.9,.58c-.32,0-.58-.25-.58-.58s.25-.58,.58-.58,.58,.25,.58,.58-.25,.58-.58,.58Z"/></g></g></g></svg>